<svg width="22" height="22" viewBox="0 0 22 22" fill="none" xmlns="http://www.w3.org/2000/svg">
<circle cx="11" cy="10.9998" r="11" fill="#4285F4"/>
<path d="M14.3333 10.3331C14.56 10.3331 14.78 10.3598 15 10.3931V7.17976L10 4.99976L5 7.17976V10.4531C5 13.4798 7.13333 16.3131 10 16.9998C10.3667 16.9131 10.72 16.7864 11.0667 16.6331C10.6067 15.9798 10.3333 15.1864 10.3333 14.3331C10.3333 12.1264 12.1267 10.3331 14.3333 10.3331Z" fill="white"/>
<path d="M14.3332 11.6665C12.8598 11.6665 11.6665 12.8598 11.6665 14.3332C11.6665 15.8065 12.8598 16.9998 14.3332 16.9998C15.8065 16.9998 16.9998 15.8065 16.9998 14.3332C16.9998 12.8598 15.8065 11.6665 14.3332 11.6665ZM14.3332 12.5865C14.7465 12.5865 15.0798 12.9265 15.0798 13.3332C15.0798 13.7398 14.7398 14.0798 14.3332 14.0798C13.9265 14.0798 13.5865 13.7398 13.5865 13.3332C13.5865 12.9265 13.9198 12.5865 14.3332 12.5865ZM14.3332 16.1665C13.7132 16.1665 13.1732 15.8598 12.8398 15.3865C12.8732 14.9065 13.8465 14.6665 14.3332 14.6665C14.8198 14.6665 15.7932 14.9065 15.8265 15.3865C15.4932 15.8598 14.9532 16.1665 14.3332 16.1665Z" fill="white"/>
</svg>
